<svg width="373" height="357" viewBox="0 0 373 357" fill="none" xmlns="http://www.w3.org/2000/svg">
<path d="M189.5 303.5L242 319L189.5 354V303.5Z" fill="#79CDF1"/>
<path d="M154 291.5L370 2L187 302L154 291.5Z" fill="black"/>
<path d="M154 293L187 302L189 353.5L154 293Z" fill="black"/>
<path d="M79.5 271.5L154.5 292.5V298L79.5 271.5Z" fill="black"/>
<path d="M370 2L49 261.5L2 249L370 2Z" fill="#79CDF1"/>
<path d="M371 4L321.5 341.5L188 302.5L371 4Z" fill="white"/>
<path d="M369.5 3.5L152 292L48 261.5L369.5 3.5Z" fill="white"/>
<path d="M371 1.5V355L321 340.5L371 1.5Z" fill="#79CDF1"/>
<line x1="2.40957" y1="248.919" x2="370.919" y2="1.59046" stroke="black" stroke-width="3" stroke-linecap="round"/>
<line x1="371.5" y1="1.5" x2="371.5" y2="354.5" stroke="black" stroke-width="3" stroke-linecap="round"/>
<line x1="371.143" y1="355.026" x2="3.0256" y2="248.857" stroke="black" stroke-width="3" stroke-linecap="round"/>
<line x1="155.112" y1="297.967" x2="2.96707" y2="248.888" stroke="black" stroke-width="3" stroke-linecap="round"/>
<line x1="371.182" y1="355.094" x2="189.094" y2="309.818" stroke="black" stroke-width="3" stroke-linecap="round"/>
<line x1="370.297" y1="3.10049" x2="153.1" y2="291.703" stroke="black" stroke-width="3" stroke-linecap="round"/>
<line x1="370.501" y1="2.06143" x2="188.061" y2="301.5" stroke="black" stroke-width="3" stroke-linecap="round"/>
<line x1="187.554" y1="303.443" x2="189.443" y2="354.445" stroke="black" stroke-width="3" stroke-linecap="round"/>
<line x1="153.052" y1="292.538" x2="189.538" y2="354.948" stroke="black" stroke-width="3" stroke-linecap="round"/>
<line x1="189.407" y1="354.918" x2="241.918" y2="319.593" stroke="black" stroke-width="3" stroke-linecap="round"/>
<path d="M184 301L310 339L184 308V301Z" fill="black"/>
</svg>
